<svg width="24" height="24" viewBox="0 0 24 24" fill="none" xmlns="http://www.w3.org/2000/svg">
<path d="M9.47369 21C10.144 21.622 11.0299 22 12 22C12.9701 22 13.856 21.622 14.5263 21M4.02527 14.394C3.8459 15.747 4.64674 16.686 5.62695 17.154C9.38526 18.949 14.6147 18.949 18.3731 17.154C19.3533 16.686 20.1541 15.747 19.9747 14.394C19.8653 13.562 19.3204 12.87 18.9171 12.194C18.3891 11.297 18.3368 10.32 18.336 9.279C18.3368 5.26 15.5006 2 12 2C8.49937 2 5.66316 5.26 5.66316 9.28C5.66316 10.32 5.61095 11.298 5.08211 12.194C4.67958 12.87 4.13558 13.562 4.02527 14.394Z" stroke="white" stroke-width="1.5" stroke-linecap="round" stroke-linejoin="round"/>
</svg>
