<svg width="20" height="19" viewBox="0 0 20 19" fill="none" xmlns="http://www.w3.org/2000/svg">
<path d="M15.491 14.9983C16.0214 14.9983 16.5301 15.209 16.9052 15.5841C17.2803 15.9592 17.491 16.4679 17.491 16.9983C17.491 17.5287 17.2803 18.0374 16.9052 18.4125C16.5301 18.7876 16.0214 18.9983 15.491 18.9983C14.9605 18.9983 14.4518 18.7876 14.0768 18.4125C13.7017 18.0374 13.491 17.5287 13.491 16.9983C13.491 16.4679 13.7017 15.9592 14.0768 15.5841C14.4518 15.209 14.9605 14.9983 15.491 14.9983ZM15.491 15.9983C15.2257 15.9983 14.9714 16.1036 14.7839 16.2912C14.5963 16.4787 14.491 16.7331 14.491 16.9983C14.491 17.2635 14.5963 17.5179 14.7839 17.7054C14.9714 17.8929 15.2257 17.9983 15.491 17.9983C15.7562 17.9983 16.0105 17.8929 16.1981 17.7054C16.3856 17.5179 16.491 17.2635 16.491 16.9983C16.491 16.7331 16.3856 16.4787 16.1981 16.2912C16.0105 16.1036 15.7562 15.9983 15.491 15.9983ZM6.49097 14.9983C7.0214 14.9983 7.53011 15.209 7.90518 15.5841C8.28025 15.9592 8.49097 16.4679 8.49097 16.9983C8.49097 17.5287 8.28025 18.0374 7.90518 18.4125C7.53011 18.7876 7.0214 18.9983 6.49097 18.9983C5.96053 18.9983 5.45183 18.7876 5.07675 18.4125C4.70168 18.0374 4.49097 17.5287 4.49097 16.9983C4.49097 16.4679 4.70168 15.9592 5.07675 15.5841C5.45183 15.209 5.96053 14.9983 6.49097 14.9983ZM6.49097 15.9983C6.22575 15.9983 5.9714 16.1036 5.78386 16.2912C5.59632 16.4787 5.49097 16.7331 5.49097 16.9983C5.49097 17.2635 5.59632 17.5179 5.78386 17.7054C5.9714 17.8929 6.22575 17.9983 6.49097 17.9983C6.75618 17.9983 7.01054 17.8929 7.19807 17.7054C7.38561 17.5179 7.49097 17.2635 7.49097 16.9983C7.49097 16.7331 7.38561 16.4787 7.19807 16.2912C7.01054 16.1036 6.75618 15.9983 6.49097 15.9983ZM17.491 2.99829H3.76097L6.31097 8.99829H14.491C14.821 8.99829 15.111 8.83829 15.291 8.59829L18.291 4.59829C18.421 4.42829 18.491 4.21829 18.491 3.99829C18.491 3.73307 18.3856 3.47872 18.1981 3.29118C18.0105 3.10365 17.7562 2.99829 17.491 2.99829ZM14.491 9.99829H6.36097L5.59097 11.5583L5.49097 11.9983C5.49097 12.2635 5.59632 12.5179 5.78386 12.7054C5.9714 12.8929 6.22575 12.9983 6.49097 12.9983H17.491V13.9983H6.49097C5.96053 13.9983 5.45183 13.7876 5.07675 13.4125C4.70168 13.0374 4.49097 12.5287 4.49097 11.9983C4.49067 11.659 4.5767 11.3252 4.74097 11.0283L5.46097 9.55829L1.83097 0.998291H0.490967V-0.00170898H2.49097L3.34097 1.99829H17.491C18.0214 1.99829 18.5301 2.209 18.9052 2.58408C19.2803 2.95915 19.491 3.46786 19.491 3.99829C19.491 4.49829 19.321 4.91829 19.041 5.25829L16.131 9.14829C15.771 9.65829 15.171 9.99829 14.491 9.99829Z" fill="black"/>
</svg>
