<svg width="17" height="18" viewBox="0 0 17 18" fill="none" xmlns="http://www.w3.org/2000/svg">
<path d="M13.491 6.99915C15.1478 6.99915 16.491 5.656 16.491 3.99915C16.491 2.34229 15.1478 0.999146 13.491 0.999146C11.8341 0.999146 10.491 2.34229 10.491 3.99915C10.491 5.656 11.8341 6.99915 13.491 6.99915Z" stroke="black" stroke-linecap="round" stroke-linejoin="round"/>
<path d="M3.49097 16.9991C5.14782 16.9991 6.49097 15.656 6.49097 13.9991C6.49097 12.3423 5.14782 10.9991 3.49097 10.9991C1.83411 10.9991 0.490967 12.3423 0.490967 13.9991C0.490967 15.656 1.83411 16.9991 3.49097 16.9991Z" stroke="black" stroke-linecap="round" stroke-linejoin="round"/>
<path d="M10.491 10.9991H16.491V15.9991C16.491 16.2644 16.3856 16.5187 16.1981 16.7063C16.0105 16.8938 15.7562 16.9991 15.491 16.9991H11.491C11.2258 16.9991 10.9714 16.8938 10.7839 16.7063C10.5963 16.5187 10.491 16.2644 10.491 15.9991V10.9991ZM0.490967 0.999146H6.49097V5.99915C6.49097 6.26436 6.38561 6.51872 6.19807 6.70625C6.01054 6.89379 5.75618 6.99915 5.49097 6.99915H1.49097C1.22575 6.99915 0.971397 6.89379 0.78386 6.70625C0.596324 6.51872 0.490967 6.26436 0.490967 5.99915V0.999146Z" stroke="black" stroke-linecap="round" stroke-linejoin="round"/>
</svg>
