<svg width="26" height="26" viewBox="0 0 26 26" fill="none" xmlns="http://www.w3.org/2000/svg">
<path d="M10 0C4.547 0 0 3.75 0 8.5C0 10.93 1.33 13.048 3.219 14.594C3.09703 15.4155 2.76305 16.191 2.25 16.844C2.04062 17.112 1.82182 17.3725 1.594 17.625C1.47607 17.7493 1.37119 17.8853 1.281 18.031C1.224 18.124 1.135 18.228 1.094 18.438C1.052 18.647 1.109 18.991 1.281 19.25L1.406 19.469L1.656 19.594C2.531 20.031 3.476 19.954 4.344 19.719C5.211 19.483 6.045 19.079 6.844 18.656C7.642 18.234 8.401 17.792 9 17.469C9.084 17.424 9.138 17.413 9.219 17.375C10.796 19.543 13.684 21 16.906 21C16.937 21.004 16.966 21 17 21C18.3 21 22.5 25.294 25 23.594C25.1 23.195 22.802 22.194 22.687 19.219C24.644 17.836 25.907 15.779 25.907 13.5C25.907 10.128 23.231 7.342 19.657 6.344C18.526 2.664 14.594 0 10 0ZM10 2C14.547 2 18 5.05 18 8.5C18 11.95 14.547 15 10 15C9.188 15 8.722 15.332 8.062 15.688C7.402 16.043 6.645 16.484 5.906 16.875C5.266 17.213 4.656 17.473 4.094 17.656C4.641 16.866 5.212 15.827 5.312 14.375L5.344 13.812L4.875 13.469C3.093 12.22 2 10.423 2 8.5C2 5.05 5.453 2 10 2Z" fill="#4FBF67"/>
</svg>
