<svg width="30" height="30" viewBox="0 0 30 30" fill="none" xmlns="http://www.w3.org/2000/svg">
<path d="M27.6562 9.84375H2.34375C1.97079 9.84375 1.6131 9.69559 1.34938 9.43187C1.08566 9.16815 0.9375 8.81046 0.9375 8.4375C0.9375 8.06454 1.08566 7.70685 1.34938 7.44313C1.6131 7.17941 1.97079 7.03125 2.34375 7.03125H27.6562C28.0292 7.03125 28.3869 7.17941 28.6506 7.44313C28.9143 7.70685 29.0625 8.06454 29.0625 8.4375C29.0625 8.81046 28.9143 9.16815 28.6506 9.43187C28.3869 9.69559 28.0292 9.84375 27.6562 9.84375ZM22.9688 16.4062H7.03125C6.65829 16.4062 6.3006 16.2581 6.03688 15.9944C5.77316 15.7306 5.625 15.373 5.625 15C5.625 14.627 5.77316 14.2694 6.03688 14.0056C6.3006 13.7419 6.65829 13.5938 7.03125 13.5938H22.9688C23.3417 13.5938 23.6994 13.7419 23.9631 14.0056C24.2268 14.2694 24.375 14.627 24.375 15C24.375 15.373 24.2268 15.7306 23.9631 15.9944C23.6994 16.2581 23.3417 16.4062 22.9688 16.4062ZM17.3438 22.9688H12.6562C12.2833 22.9688 11.9256 22.8206 11.6619 22.5569C11.3982 22.2931 11.25 21.9355 11.25 21.5625C11.25 21.1895 11.3982 20.8319 11.6619 20.5681C11.9256 20.3044 12.2833 20.1562 12.6562 20.1562H17.3438C17.7167 20.1562 18.0744 20.3044 18.3381 20.5681C18.6018 20.8319 18.75 21.1895 18.75 21.5625C18.75 21.9355 18.6018 22.2931 18.3381 22.5569C18.0744 22.8206 17.7167 22.9688 17.3438 22.9688Z" fill="#29ABE2"/>
</svg>
