<svg width="17" height="18" viewBox="0 0 17 18" fill="none" xmlns="http://www.w3.org/2000/svg">
<path d="M0.490967 15.7491V6.74915C0.490967 6.43248 0.561967 6.13248 0.703967 5.84915C0.845967 5.56581 1.04163 5.33248 1.29097 5.14915L7.29097 0.649146C7.64097 0.382479 8.04097 0.249146 8.49097 0.249146C8.94097 0.249146 9.34097 0.382479 9.69097 0.649146L15.691 5.14915C15.941 5.33248 16.137 5.56581 16.279 5.84915C16.421 6.13248 16.4916 6.43248 16.491 6.74915V15.7491C16.491 16.2991 16.295 16.7701 15.903 17.1621C15.511 17.5541 15.0403 17.7498 14.491 17.7491H11.491C11.2076 17.7491 10.9703 17.6531 10.779 17.4611C10.5876 17.2691 10.4916 17.0318 10.491 16.7491V11.7491C10.491 11.4658 10.395 11.2285 10.203 11.0371C10.011 10.8458 9.77363 10.7498 9.49097 10.7491H7.49097C7.20763 10.7491 6.9703 10.8451 6.77897 11.0371C6.58763 11.2291 6.49163 11.4665 6.49097 11.7491V16.7491C6.49097 17.0325 6.39497 17.2701 6.20297 17.4621C6.01097 17.6541 5.77363 17.7498 5.49097 17.7491H2.49097C1.94097 17.7491 1.4703 17.5535 1.07897 17.1621C0.687633 16.7708 0.491633 16.2998 0.490967 15.7491Z" fill="#004F74"/>
</svg>
