<svg width="16" height="21" viewBox="0 0 16 21" fill="none" xmlns="http://www.w3.org/2000/svg">
<path d="M1 11.5C1 10.9696 1.21071 10.4609 1.58579 10.0858C1.96086 9.71071 2.46957 9.5 3 9.5H13C13.5304 9.5 14.0391 9.71071 14.4142 10.0858C14.7893 10.4609 15 10.9696 15 11.5V17.5C15 18.0304 14.7893 18.5391 14.4142 18.9142C14.0391 19.2893 13.5304 19.5 13 19.5H3C2.46957 19.5 1.96086 19.2893 1.58579 18.9142C1.21071 18.5391 1 18.0304 1 17.5V11.5Z" stroke="black" stroke-width="2" stroke-linecap="round" stroke-linejoin="round"/>
<path d="M4 9.5V5.5C4 4.43913 4.42143 3.42172 5.17157 2.67157C5.92172 1.92143 6.93913 1.5 8 1.5C9.06087 1.5 10.0783 1.92143 10.8284 2.67157C11.5786 3.42172 12 4.43913 12 5.5V9.5M7 14.5C7 14.7652 7.10536 15.0196 7.29289 15.2071C7.48043 15.3946 7.73478 15.5 8 15.5C8.26522 15.5 8.51957 15.3946 8.70711 15.2071C8.89464 15.0196 9 14.7652 9 14.5C9 14.2348 8.89464 13.9804 8.70711 13.7929C8.51957 13.6054 8.26522 13.5 8 13.5C7.73478 13.5 7.48043 13.6054 7.29289 13.7929C7.10536 13.9804 7 14.2348 7 14.5Z" stroke="black" stroke-width="2" stroke-linecap="round" stroke-linejoin="round"/>
</svg>
