<svg width="93" height="101" viewBox="0 0 93 101" fill="none" xmlns="http://www.w3.org/2000/svg">
<path d="M90.0984 23.2181L49.1784 0.688684C48.3572 0.23683 47.4361 0 46.5 0C45.5639 0 44.6428 0.23683 43.8216 0.688684L2.9016 23.2181C2.02377 23.7011 1.29125 24.4126 0.780758 25.278C0.270271 26.1435 0.000602306 27.1311 0 28.1373V72.8594C0.000602306 73.8657 0.270271 74.8532 0.780758 75.7187C1.29125 76.5842 2.02377 77.2956 2.9016 77.7786L43.8216 100.308C44.6421 100.762 45.5635 101 46.5 101C47.4365 101 48.3578 100.762 49.1784 100.308L90.0984 77.7786C90.9762 77.2956 91.7088 76.5842 92.2192 75.7187C92.7297 74.8532 92.9994 73.8657 93 72.8594V28.1373C92.9994 27.1311 92.7297 26.1435 92.2192 25.278C91.7088 24.4126 90.9762 23.7011 90.0984 23.2181ZM45.6072 3.9713C45.8801 3.81814 46.1875 3.73774 46.5 3.73774C46.8125 3.73774 47.1199 3.81814 47.3928 3.9713L87.7316 26.1827L69.9825 35.9511C69.8982 35.8809 69.808 35.8183 69.7128 35.764L28.7928 13.2346L45.6072 3.9713ZM46.5 48.8617L5.26845 26.1827L24.9054 15.3669L66.1369 38.0646L46.5 48.8617ZM4.6872 74.4867C4.39505 74.3259 4.15117 74.0893 3.98104 73.8014C3.81091 73.5135 3.72076 73.1849 3.72 72.8501V29.5916L44.64 52.1116V96.4923L4.6872 74.4867ZM88.3128 74.4867L48.36 96.4643V52.1116L66.96 41.8757V61.721C66.96 62.217 67.156 62.6928 67.5048 63.0436C67.8536 63.3943 68.3267 63.5914 68.82 63.5914C69.3133 63.5914 69.7864 63.3943 70.1352 63.0436C70.484 62.6928 70.68 62.217 70.68 61.721V39.8275L89.28 29.5916V72.8594C89.2792 73.1943 89.1891 73.5228 89.019 73.8107C88.8488 74.0986 88.6049 74.3353 88.3128 74.496V74.4867Z" fill="#29ABE2"/>
</svg>
