<svg width="18" height="18" viewBox="0 0 18 18" fill="none" xmlns="http://www.w3.org/2000/svg">
<path d="M15.509 17.9361H2.63501C1.97197 17.9361 1.33608 17.6727 0.867243 17.2039C0.398402 16.7351 0.13501 16.0992 0.13501 15.4361V2.56213C0.13501 1.89909 0.398402 1.26321 0.867243 0.794367C1.33608 0.325526 1.97197 0.0621338 2.63501 0.0621338H15.509C16.1721 0.0621338 16.8079 0.325526 17.2768 0.794367C17.7456 1.26321 18.009 1.89909 18.009 2.56213V15.4361C18.009 16.0992 17.7456 16.7351 17.2768 17.2039C16.8079 17.6727 16.1721 17.9361 15.509 17.9361ZM2.63501 1.06213C2.23718 1.06213 1.85565 1.22017 1.57435 1.50147C1.29305 1.78278 1.13501 2.16431 1.13501 2.56213V15.4361C1.13501 15.834 1.29305 16.2155 1.57435 16.4968C1.85565 16.7781 2.23718 16.9361 2.63501 16.9361H15.509C15.9068 16.9361 16.2884 16.7781 16.5697 16.4968C16.851 16.2155 17.009 15.834 17.009 15.4361V2.56213C17.009 2.16431 16.851 1.78278 16.5697 1.50147C16.2884 1.22017 15.9068 1.06213 15.509 1.06213H2.63501Z" fill="black"/>
<path d="M3.61696 5.28215C3.48489 5.27976 3.35869 5.22721 3.26396 5.13515C3.17022 5.04139 3.11757 4.91423 3.11757 4.78165C3.11757 4.64907 3.17022 4.52191 3.26396 4.42815C3.35766 4.33468 3.48461 4.28218 3.61696 4.28215H4.62296C4.75489 4.28427 4.88108 4.33646 4.97596 4.42815C5.02254 4.47459 5.0595 4.52976 5.08473 4.59051C5.10995 4.65125 5.12295 4.71638 5.12296 4.78215C5.12296 4.91476 5.07028 5.04194 4.97651 5.1357C4.88274 5.22947 4.75557 5.28215 4.62296 5.28215H3.61696ZM3.61696 9.49915C3.48503 9.49703 3.35884 9.44484 3.26396 9.35315C3.2174 9.30671 3.18045 9.25153 3.15525 9.19078C3.13004 9.13004 3.11707 9.06492 3.11707 8.99915C3.11707 8.93338 3.13004 8.86826 3.15525 8.80752C3.18045 8.74677 3.2174 8.6916 3.26396 8.64515C3.35884 8.55346 3.48503 8.50127 3.61696 8.49915H4.62296C4.75489 8.50127 4.88108 8.55346 4.97596 8.64515C5.02252 8.6916 5.05947 8.74677 5.08467 8.80752C5.10988 8.86826 5.12285 8.93338 5.12285 8.99915C5.12285 9.06492 5.10988 9.13004 5.08467 9.19078C5.05947 9.25153 5.02252 9.30671 4.97596 9.35315C4.88108 9.44484 4.75489 9.49703 4.62296 9.49915H3.61696ZM3.61696 13.7192C3.48489 13.7168 3.35869 13.6642 3.26396 13.5722C3.17022 13.4784 3.11757 13.3512 3.11757 13.2187C3.11757 13.0861 3.17022 12.9589 3.26396 12.8652C3.35884 12.7735 3.48503 12.7213 3.61696 12.7192H4.62296C4.75489 12.7213 4.88108 12.7735 4.97596 12.8652C5.02254 12.9116 5.0595 12.9668 5.08473 13.0275C5.10995 13.0883 5.12295 13.1534 5.12296 13.2192C5.12296 13.3518 5.07028 13.4789 4.97651 13.5727C4.88274 13.6665 4.75557 13.7192 4.62296 13.7192H3.61696ZM7.62696 5.28015C7.49435 5.28015 7.36717 5.22747 7.27341 5.1337C7.17964 5.03994 7.12696 4.91276 7.12696 4.78015C7.12696 4.64754 7.17964 4.52037 7.27341 4.4266C7.36717 4.33283 7.49435 4.28015 7.62696 4.28015H14.527C14.6596 4.28015 14.7867 4.33283 14.8805 4.4266C14.9743 4.52037 15.027 4.64754 15.027 4.78015C15.027 4.91276 14.9743 5.03994 14.8805 5.1337C14.7867 5.22747 14.6596 5.28015 14.527 5.28015H7.62696ZM7.62696 9.49915C7.49435 9.49915 7.36717 9.44647 7.27341 9.35271C7.17964 9.25894 7.12696 9.13176 7.12696 8.99915C7.12696 8.86654 7.17964 8.73937 7.27341 8.6456C7.36717 8.55183 7.49435 8.49915 7.62696 8.49915H14.527C14.6596 8.49915 14.7867 8.55183 14.8805 8.6456C14.9743 8.73937 15.027 8.86654 15.027 8.99915C15.027 9.13176 14.9743 9.25894 14.8805 9.35271C14.7867 9.44647 14.6596 9.49915 14.527 9.49915H7.62696ZM7.62696 13.7172C7.49435 13.7172 7.36717 13.6645 7.27341 13.5707C7.17964 13.4769 7.12696 13.3498 7.12696 13.2172C7.12696 13.0845 7.17964 12.9574 7.27341 12.8636C7.36717 12.7698 7.49435 12.7172 7.62696 12.7172H14.527C14.6596 12.7172 14.7867 12.7698 14.8805 12.8636C14.9743 12.9574 15.027 13.0845 15.027 13.2172C15.027 13.3498 14.9743 13.4769 14.8805 13.5707C14.7867 13.6645 14.6596 13.7172 14.527 13.7172H7.62696Z" fill="black"/>
</svg>
