<svg width="19" height="19" viewBox="0 0 19 19" fill="none" xmlns="http://www.w3.org/2000/svg">
<path d="M17.5 19C17.8978 19 18.2794 18.842 18.5607 18.5607C18.842 18.2794 19 17.8978 19 17.5V14C19 13.6022 18.842 13.2206 18.5607 12.9393C18.2794 12.658 17.8978 12.5 17.5 12.5C16.33 12.5 15.18 12.32 14.08 11.95C13.817 11.867 13.5363 11.8576 13.2683 11.9228C13.0004 11.988 12.7554 12.1254 12.56 12.32L11.12 13.76C8.63224 12.4024 6.58758 10.3578 5.23 7.87L6.66 6.44C7.07 6.05 7.22 5.47 7.04 4.91C6.68 3.82 6.5 2.67 6.5 1.5C6.5 1.10218 6.34196 0.720644 6.06066 0.43934C5.77936 0.158035 5.39782 0 5 0H1.5C1.10218 0 0.720644 0.158035 0.43934 0.43934C0.158035 0.720644 0 1.10218 0 1.5C0 11.15 7.85 19 17.5 19ZM1.5 1H5C5.13261 1 5.25979 1.05268 5.35355 1.14645C5.44732 1.24021 5.5 1.36739 5.5 1.5C5.5 2.78 5.7 4.03 6.09 5.22C6.14 5.36 6.13 5.56 5.97 5.72L4 7.68C5.65 10.91 8.07 13.33 11.31 15L13.26 13.03C13.4 12.89 13.59 12.85 13.77 12.9C14.97 13.3 16.22 13.5 17.5 13.5C17.6326 13.5 17.7598 13.5527 17.8536 13.6464C17.9473 13.7402 18 13.8674 18 14V17.5C18 17.6326 17.9473 17.7598 17.8536 17.8536C17.7598 17.9473 17.6326 18 17.5 18C8.4 18 1 10.6 1 1.5C1 1.36739 1.05268 1.24021 1.14645 1.14645C1.24021 1.05268 1.36739 1 1.5 1Z" fill="black"/>
</svg>
