<svg width="18" height="22" viewBox="0 0 18 22" fill="none" xmlns="http://www.w3.org/2000/svg">
<path fill-rule="evenodd" clip-rule="evenodd" d="M8.75909 0.249146C7.49931 0.249146 6.29113 0.74959 5.40033 1.64039C4.50953 2.53119 4.00909 3.73937 4.00909 4.99915C4.00909 6.25892 4.50953 7.4671 5.40033 8.3579C6.29113 9.2487 7.49931 9.74915 8.75909 9.74915C10.0189 9.74915 11.227 9.2487 12.1178 8.3579C13.0086 7.4671 13.5091 6.25892 13.5091 4.99915C13.5091 3.73937 13.0086 2.53119 12.1178 1.64039C11.227 0.74959 10.0189 0.249146 8.75909 0.249146ZM5.50909 4.99915C5.50909 4.13719 5.8515 3.31054 6.46099 2.70105C7.07049 2.09156 7.89714 1.74915 8.75909 1.74915C9.62104 1.74915 10.4477 2.09156 11.0572 2.70105C11.6667 3.31054 12.0091 4.13719 12.0091 4.99915C12.0091 5.8611 11.6667 6.68775 11.0572 7.29724C10.4477 7.90674 9.62104 8.24915 8.75909 8.24915C7.89714 8.24915 7.07049 7.90674 6.46099 7.29724C5.8515 6.68775 5.50909 5.8611 5.50909 4.99915ZM8.75909 11.2491C6.44609 11.2491 4.31409 11.7751 2.73509 12.6631C1.17909 13.5391 0.00908911 14.8651 0.00908911 16.4991V16.6011C0.00808911 17.7631 0.00708902 19.2211 1.28609 20.2631C1.91509 20.7751 2.79609 21.1401 3.98609 21.3801C5.17809 21.6221 6.73309 21.7491 8.75909 21.7491C10.7851 21.7491 12.3391 21.6221 13.5331 21.3801C14.7231 21.1401 15.6031 20.7751 16.2331 20.2631C17.5121 19.2211 17.5101 17.7631 17.5091 16.6011V16.4991C17.5091 14.8651 16.3391 13.5391 14.7841 12.6631C13.2041 11.7751 11.0731 11.2491 8.75909 11.2491ZM1.50909 16.4991C1.50909 15.6481 2.13109 14.7241 3.47009 13.9711C4.78609 13.2311 6.65409 12.7491 8.76009 12.7491C10.8641 12.7491 12.7321 13.2311 14.0481 13.9711C15.3881 14.7241 16.0091 15.6481 16.0091 16.4991C16.0091 17.8071 15.9691 18.5431 15.2851 19.0991C14.9151 19.4011 14.2951 19.6961 13.2351 19.9101C12.1781 20.1241 10.7331 20.2491 8.75909 20.2491C6.78509 20.2491 5.33909 20.1241 4.28309 19.9101C3.22309 19.6961 2.60309 19.4011 2.23309 19.1001C1.54909 18.5431 1.50909 17.8071 1.50909 16.4991Z" fill="black"/>
</svg>
