<svg width="15" height="17" viewBox="0 0 15 17" fill="none" xmlns="http://www.w3.org/2000/svg">
<path d="M9.54688 8.67188C9.38021 8.75 9.21875 8.83594 9.0625 8.92969C8.90625 9.02344 8.7526 9.1276 8.60156 9.24219C8.21094 8.9974 7.79427 8.8125 7.35156 8.6875C6.90885 8.5625 6.45833 8.5 6 8.5C5.54167 8.5 5.09896 8.5599 4.67188 8.67969C4.24479 8.79948 3.84635 8.96615 3.47656 9.17969C3.10677 9.39323 2.77083 9.65365 2.46875 9.96094C2.16667 10.2682 1.90625 10.6068 1.6875 10.9766C1.46875 11.3464 1.29948 11.7448 1.17969 12.1719C1.0599 12.599 1 13.0417 1 13.5H0C0 12.875 0.0911458 12.2734 0.273438 11.6953C0.455729 11.1172 0.71875 10.5833 1.0625 10.0938C1.40625 9.60417 1.8125 9.16927 2.28125 8.78906C2.75 8.40885 3.28125 8.10938 3.875 7.89062C3.28646 7.50521 2.82812 7.02083 2.5 6.4375C2.17188 5.85417 2.00521 5.20833 2 4.5C2 3.94792 2.10417 3.42969 2.3125 2.94531C2.52083 2.46094 2.80469 2.03646 3.16406 1.67188C3.52344 1.30729 3.94792 1.02083 4.4375 0.8125C4.92708 0.604167 5.44792 0.5 6 0.5C6.55208 0.5 7.07031 0.604167 7.55469 0.8125C8.03906 1.02083 8.46354 1.30469 8.82812 1.66406C9.19271 2.02344 9.47917 2.44792 9.6875 2.9375C9.89583 3.42708 10 3.94792 10 4.5C10 4.84375 9.95833 5.17969 9.875 5.50781C9.79167 5.83594 9.66667 6.14583 9.5 6.4375C9.33333 6.72917 9.13802 6.9974 8.91406 7.24219C8.6901 7.48698 8.42708 7.70312 8.125 7.89062C8.625 8.08333 9.09896 8.34375 9.54688 8.67188ZM3 4.5C3 4.91667 3.07812 5.30469 3.23438 5.66406C3.39062 6.02344 3.60417 6.34115 3.875 6.61719C4.14583 6.89323 4.46354 7.10938 4.82812 7.26562C5.19271 7.42188 5.58333 7.5 6 7.5C6.41146 7.5 6.79948 7.42188 7.16406 7.26562C7.52865 7.10938 7.84635 6.89583 8.11719 6.625C8.38802 6.35417 8.60417 6.03646 8.76562 5.67188C8.92708 5.30729 9.00521 4.91667 9 4.5C9 4.08854 8.92188 3.70052 8.76562 3.33594C8.60938 2.97135 8.39583 2.65365 8.125 2.38281C7.85417 2.11198 7.53385 1.89583 7.16406 1.73438C6.79427 1.57292 6.40625 1.49479 6 1.5C5.58333 1.5 5.19531 1.57812 4.83594 1.73438C4.47656 1.89062 4.15885 2.10417 3.88281 2.375C3.60677 2.64583 3.39062 2.96615 3.23438 3.33594C3.07812 3.70573 3 4.09375 3 4.5ZM15 9.5V12.5H12V11.5H13.4844C13.25 11.1875 12.9583 10.9427 12.6094 10.7656C12.2604 10.5885 11.8906 10.5 11.5 10.5C11.1927 10.5 10.9036 10.5521 10.6328 10.6562C10.362 10.7604 10.1146 10.9036 9.89062 11.0859C9.66667 11.2682 9.48438 11.4896 9.34375 11.75C9.20312 12.0104 9.10417 12.2891 9.04688 12.5859L8.05469 12.4141C8.1276 11.9922 8.26823 11.6042 8.47656 11.25C8.6849 10.8958 8.9401 10.5885 9.24219 10.3281C9.54427 10.0677 9.89062 9.86458 10.2812 9.71875C10.6719 9.57292 11.0781 9.5 11.5 9.5C11.974 9.5 12.4271 9.59115 12.8594 9.77344C13.2917 9.95573 13.6719 10.2214 14 10.5703V9.5H15ZM11.5 15.5C11.8021 15.5 12.0911 15.4479 12.3672 15.3438C12.6432 15.2396 12.8906 15.0964 13.1094 14.9141C13.3281 14.7318 13.5104 14.5104 13.6562 14.25C13.8021 13.9896 13.901 13.7109 13.9531 13.4141L14.9453 13.5859C14.8724 14.0078 14.7318 14.3958 14.5234 14.75C14.3151 15.1042 14.0599 15.4115 13.7578 15.6719C13.4557 15.9323 13.1094 16.1354 12.7188 16.2812C12.3281 16.4271 11.9219 16.5 11.5 16.5C11.026 16.5 10.5729 16.4089 10.1406 16.2266C9.70833 16.0443 9.32812 15.7786 9 15.4297V16.5H8V13.5H11V14.5H9.51562C9.75 14.8125 10.0417 15.0573 10.3906 15.2344C10.7396 15.4115 11.1094 15.5 11.5 15.5Z" fill="black"/>
</svg>
